# xmcd
#
# Track frame offsets:
#	150
#	30644
#	51369
#	125773
#	155966
#	176395
#
# Disc length: 3293 seconds
#
# Revision: 1
# Processed by: cddbd v1.5.2PL0 Copyright (c) Steve Scherf et al.
# Submitted via: EasyCDDAExtractor 10.0.6.1
#
DISCID=510cdb06
DTITLE=Michigan ECPE Final - Michigan ECPE Final CD5
DYEAR=1900
DGENRE=
TTITLE0=Test 11. Part 1
TTITLE1=Test 11. Part 2
TTITLE2=Test 11. Part 3
TTITLE3=Test 12. Part 1
TTITLE4=Test 12. Part 2
TTITLE5=Test 12. Part 3
EXTD=
EXTT0=
EXTT1=
EXTT2=
EXTT3=
EXTT4=
EXTT5=
PLAYORDER=
